<svg xmlns="http://www.w3.org/2000/svg" viewBox="0 0 286.68 93.26"><defs><style>.cls-1,.cls-2,.cls-3{fill:#fff;}.cls-2{font-size:40px;font-family:Poppins-SemiBold, Poppins;font-weight:600;}.cls-3{font-size:27px;font-family:Poppins-Regular, Poppins;}</style></defs><g id="Layer_2" data-name="Layer 2"><g id="Layer_1-2" data-name="Layer 1"><rect class="cls-1" x="20.46" y="34.83" width="35.45" height="11.42" rx="2.92"/><path class="cls-1" d="M74.53,44.6A37.66,37.66,0,1,1,27.24.68a1.87,1.87,0,0,1,2.37,2.17l-2.09,10a1.25,1.25,0,0,1-.69.86A25.59,25.59,0,1,0,50.6,14.8a1.56,1.56,0,0,0-2.3,1L43.5,38.65l-9.92-2.07L40.8,2.22A2.79,2.79,0,0,1,44.13.07a43.85,43.85,0,0,1,16.24,6.8A36.79,36.79,0,0,1,72.9,23.55,37.7,37.7,0,0,1,74.53,44.6Z" transform="translate(0)"/><text class="cls-2" transform="translate(92.75 50.37)">GoPanda</text><path class="cls-1" d="M54,2.22l-.74-.14,0-.19Z" transform="translate(0)"/><path class="cls-1" d="M54.14,2.25v0L54,2.22Z" transform="translate(0)"/><text class="cls-3" transform="translate(129.35 77.81)">Dashboard</text></g></g></svg>