<?xml version="1.0" encoding="UTF-8"?>
<svg version="1.1" xmlns="http://www.w3.org/2000/svg" width="1254" height="1254">
<path d="M0 0 C413.82 0 827.64 0 1254 0 C1254 413.82 1254 827.64 1254 1254 C840.18 1254 426.36 1254 0 1254 C0 840.18 0 426.36 0 0 Z " fill="#FDFCF9" transform="translate(0,0)"/>
<path d="M0 0 C12.42719884 10.15238956 21.95717194 23.70810507 28.58447266 38.29443359 C28.58447266 39.28443359 28.58447266 40.27443359 28.58447266 41.29443359 C29.43783203 40.94251953 30.29119141 40.59060547 31.17041016 40.22802734 C51.17772415 32.22949353 72.27529895 27.26871836 93.58447266 24.29443359 C95.40277588 24.0284436 95.40277588 24.0284436 97.2578125 23.75708008 C109.19525798 22.11265321 121.04870326 21.93813226 133.08447266 21.98193359 C134.60400543 21.98416931 134.60400543 21.98416931 136.15423584 21.9864502 C151.49409794 22.02700222 166.45111428 22.58098457 181.58447266 25.29443359 C182.45523437 25.44428711 183.32599609 25.59414062 184.22314453 25.74853516 C203.87108304 29.18875041 222.75879521 34.77426577 241.58447266 41.29443359 C241.84099609 40.44236328 242.09751953 39.59029297 242.36181641 38.71240234 C246.18990934 28.01086459 253.04286373 18.66822006 260.58447266 10.29443359 C261.27025391 9.52615234 261.95603516 8.75787109 262.66259766 7.96630859 C281.39130534 -11.87224843 306.75002613 -21.58998828 333.46337891 -24.06494141 C362.70108324 -24.75532404 390.79292858 -13.72680299 411.94506836 6.20605469 C419.154827 13.21444495 424.66234635 20.55273727 429.58447266 29.29443359 C430.20837891 30.35662109 430.83228516 31.41880859 431.47509766 32.51318359 C444.17666693 55.70735357 447.50474837 86.4361264 440.08447266 111.98193359 C439.05269913 115.15079646 437.88085083 118.22499742 436.58447266 121.29443359 C436.12693604 122.38425537 436.12693604 122.38425537 435.66015625 123.49609375 C430.10118792 136.29357311 422.68641883 148.1410431 412.13916016 157.39208984 C411.62611328 158.01986328 411.11306641 158.64763672 410.58447266 159.29443359 C411.03109339 162.74294676 412.65184985 165.49978253 414.31494141 168.51318359 C414.87117187 169.52896484 415.42740234 170.54474609 416.00048828 171.59130859 C416.87737305 173.17685547 416.87737305 173.17685547 417.77197266 174.79443359 C421.76033289 182.03442161 425.64531993 189.29908589 429.30395508 196.7121582 C430.41054476 198.94369282 431.54812887 201.15359477 432.70947266 203.35693359 C434.61422538 207.15076207 436.00547773 211.07666722 437.36181641 215.09521484 C438.42154739 217.86812115 439.6143035 220.4631539 440.89306641 223.13818359 C443.89800033 229.68833249 446.01224539 236.4551995 448.06933594 243.34448242 C448.70442559 245.46508118 449.35645631 247.57992899 450.01025391 249.69482422 C452.52712218 257.95996062 454.48553144 266.1871316 455.9609375 274.69946289 C456.48080004 277.69671266 457.05603429 280.66888016 457.67822266 283.64599609 C458.68570858 288.627223 459.39981086 293.63507346 460.08447266 298.66943359 C460.87456491 304.37537796 461.6869002 310.06199825 462.70947266 315.73193359 C466.88733787 340.22697455 465.08717769 366.05260208 462.83447266 390.66943359 C462.75597076 391.55956146 462.67746887 392.44968933 462.59658813 393.36679077 C461.5292872 405.23850763 459.67321214 416.72006241 457.02371216 428.33947754 C456.47023794 430.80286658 455.98011778 433.27627253 455.50244141 435.75537109 C452.6726297 450.04329718 449.02504353 464.18775544 444.95947266 478.16943359 C444.68272705 479.12414551 444.40598145 480.07885742 444.12084961 481.0625 C442.44257722 486.72822052 440.5380609 492.27189743 438.48583984 497.8125 C437.37987835 500.85778835 436.43325523 503.93581597 435.52197266 507.04443359 C434.13587674 511.62177359 432.53597954 515.92305818 430.58447266 520.29443359 C428.06402844 526.58702912 425.6835841 532.89069227 423.64697266 539.35693359 C421.9236826 544.65289815 419.63862608 549.48321872 417.04931641 554.40771484 C415.74929247 556.96962868 414.5995082 559.55610601 413.48461914 562.20239258 C399.44238254 594.83811957 383.69633435 627.29627174 365.875 658.06103516 C364.30596626 660.77641931 362.75236713 663.50045579 361.19775391 666.22412109 C350.24737319 685.3654496 339.0184329 704.28469564 326.83447266 722.66943359 C326.14232666 723.71695801 325.45018066 724.76448242 324.73706055 725.84375 C324.09373779 726.80458496 323.45041504 727.76541992 322.78759766 728.75537109 C322.21686523 729.60921387 321.64613281 730.46305664 321.05810547 731.34277344 C319.58447266 733.29443359 319.58447266 733.29443359 317.58447266 734.29443359 C317.57512695 733.56667725 317.56578125 732.8389209 317.55615234 732.08911133 C316.98694535 696.53320568 310.19480483 664.74855154 293.58447266 633.29443359 C293.11702637 632.39942139 293.11702637 632.39942139 292.64013672 631.48632812 C285.23074416 617.43200415 275.58377353 604.73665933 264.58447266 593.29443359 C264.14167969 592.82585938 263.69888672 592.35728516 263.24267578 591.87451172 C248.56386271 576.3902768 231.33181421 564.86752354 212.37646484 555.21289062 C211.17690778 554.59807678 209.98474139 553.96863541 208.80029297 553.32519531 C202.81301826 550.15427242 196.51793481 548.1222264 190.08447266 546.04443359 C188.97587891 545.68091797 187.86728516 545.31740234 186.72509766 544.94287109 C184.01330783 544.05452615 181.29980688 543.17187226 178.58447266 542.29443359 C182.35278084 540.08544654 186.42179506 539.28263515 190.63525391 538.33349609 C192.28519285 537.94857037 193.93475485 537.56202623 195.58398438 537.17407227 C196.45021423 536.97059174 197.31644409 536.76711121 198.20892334 536.5574646 C252.92152779 523.57096996 309.10088415 496.43306076 345.58447266 452.29443359 C346.38884766 451.38951172 347.19322266 450.48458984 348.02197266 449.55224609 C359.86334881 436.15544401 369.19811376 421.0379728 377.58447266 405.29443359 C378.19935547 404.15876953 378.81423828 403.02310547 379.44775391 401.85302734 C399.87785143 362.7595148 406.89552509 316.75996254 400.58447266 273.29443359 C400.46088379 272.38838379 400.33729492 271.48233398 400.20996094 270.54882812 C396.12117535 241.04514257 386.59218542 213.53527894 372.58447266 187.29443359 C372.24480469 186.64845215 371.90513672 186.0024707 371.55517578 185.33691406 C360.02211288 163.52181417 344.58110712 144.10406104 327.58447266 126.29443359 C326.33730469 124.98539062 326.33730469 124.98539062 325.06494141 123.64990234 C319.26508163 117.70390436 313.09898451 112.43746926 306.58447266 107.29443359 C305.49004251 106.40985777 304.39631812 105.52440819 303.30322266 104.63818359 C290.22690703 94.10603584 276.39332304 85.19272834 261.58447266 77.29443359 C260.94429199 76.9517041 260.30411133 76.60897461 259.64453125 76.25585938 C249.342985 70.79256155 238.72563037 66.32149495 227.83837891 62.16113281 C225.92307462 61.42463691 224.01816214 60.66120671 222.11572266 59.89208984 C210.34427521 55.33211082 197.89724222 52.93663283 185.58447266 50.29443359 C184.76140625 50.11315918 183.93833984 49.93188477 183.09033203 49.74511719 C180.5946958 49.21600521 178.09585698 48.74300963 175.58447266 48.29443359 C174.5711084 48.11090332 173.55774414 47.92737305 172.51367188 47.73828125 C161.30534213 45.97102533 150.14061106 45.95644947 138.81689453 45.97875977 C135.48647936 45.98190806 132.1569655 45.95842444 128.82666016 45.93310547 C115.13976098 45.89263646 102.06285726 46.96074275 88.58447266 49.29443359 C86.87976807 49.56066528 86.87976807 49.56066528 85.140625 49.83227539 C29.56317329 58.6421997 -19.03554858 86.99044164 -59.41552734 125.29443359 C-60.24052734 126.07689453 -61.06552734 126.85935547 -61.91552734 127.66552734 C-67.05859912 132.67466496 -71.68080274 137.99331347 -76.11425781 143.63818359 C-77.03350931 144.80820276 -77.95747533 145.97452519 -78.88476562 147.13818359 C-110.45275126 186.82702616 -129.95237204 232.7989206 -135.41552734 283.29443359 C-135.51720215 284.20870117 -135.61887695 285.12296875 -135.72363281 286.06494141 C-137.39239288 302.4312835 -137.70648615 319.47325595 -134.20458984 335.59912109 C-133.40907011 339.3246739 -132.8888704 343.01571192 -132.41552734 346.79443359 C-131.77841374 351.36300432 -130.91312966 355.49327639 -129.30615234 359.81005859 C-128.62356541 361.71411687 -128.02416282 363.64816989 -127.46240234 365.59130859 C-116.85384618 402.19829819 -96.4591702 433.82156644 -70.41552734 461.29443359 C-69.94244141 461.79620117 -69.46935547 462.29796875 -68.98193359 462.81494141 C-61.88767849 470.28890258 -54.34409868 476.78317515 -46.12402344 482.98730469 C-44.50761 484.22398339 -42.92327533 485.50226654 -41.34130859 486.78271484 C-21.86008222 502.42257263 1.81294929 515.65815122 25.58447266 523.29443359 C27.19512656 523.92391384 28.79975948 524.56909013 30.39697266 525.23193359 C40.67071932 529.38874557 51.03541363 533.20349324 61.89306641 535.50537109 C66.91510068 536.57886413 71.9033003 537.78436926 76.89697266 538.98193359 C78.74719818 539.42348606 80.59745583 539.86490398 82.44775391 540.30615234 C83.82667538 540.63551568 85.20558778 540.96491707 86.58447266 541.29443359 C83.67734196 543.23252072 81.45209299 544.07545514 78.14697266 545.10693359 C50.52774725 554.18182194 26.76024337 569.54853807 5.58447266 589.29443359 C4.47458984 590.32310547 4.47458984 590.32310547 3.34228516 591.37255859 C-29.80338274 623.22070924 -47.67575634 669.03814977 -50.41552734 714.29443359 C-50.47047363 715.18324219 -50.52541992 716.07205078 -50.58203125 716.98779297 C-50.9079427 722.42157319 -51.18174637 727.85594987 -51.41552734 733.29443359 C-56.67566047 728.65906724 -60.07931937 722.94249871 -63.79052734 717.04443359 C-64.49024658 715.9405127 -65.18996582 714.8365918 -65.91088867 713.69921875 C-82.87013992 686.86662247 -98.42638898 659.26598117 -113.41552734 631.29443359 C-113.86524902 630.45960449 -114.3149707 629.62477539 -114.77832031 628.76464844 C-125.52607151 608.79523719 -134.97378834 588.22958191 -144.28930664 567.56347656 C-144.90279403 566.2041737 -145.51647657 564.84495889 -146.13037109 563.48583984 C-146.56956123 562.51274368 -146.56956123 562.51274368 -147.0176239 561.51998901 C-148.49833639 558.25583895 -150.02555214 555.0301865 -151.66943359 551.84521484 C-153.58781775 547.94407123 -155.03179754 544.03209471 -156.41552734 539.91943359 C-156.93615305 538.40979751 -157.45827926 536.90067804 -157.98193359 535.39208984 C-158.22959473 534.67811035 -158.47725586 533.96413086 -158.73242188 533.22851562 C-159.82563924 530.13328047 -161.05032937 527.09854362 -162.29052734 524.06005859 C-168.21592624 509.49345296 -173.96797267 494.88484622 -177.61083984 479.55615234 C-178.58447844 475.60960754 -179.68523882 471.70574649 -180.79052734 467.79443359 C-183.33669433 458.74193346 -185.63782706 449.63416587 -187.8684082 440.49926758 C-188.21692289 439.09478914 -188.57600091 437.69285969 -188.94897461 436.29467773 C-190.37348695 430.9075419 -191.20875793 425.49706618 -191.97802734 419.98193359 C-192.22684987 418.21465563 -192.47804905 416.44771021 -192.73193359 414.68115234 C-192.83965088 413.90989014 -192.94736816 413.13862793 -193.05834961 412.34399414 C-193.3963628 410.10416087 -193.3963628 410.10416087 -194.41552734 407.29443359 C-201.27432428 368.89292078 -201.42174902 323.12386238 -191.41552734 285.29443359 C-191.07761218 283.38208407 -190.76291619 281.46539838 -190.47802734 279.54443359 C-189.47407434 273.35081582 -188.04328162 267.35135617 -186.41552734 261.29443359 C-186.23618652 260.62105957 -186.0568457 259.94768555 -185.87207031 259.25390625 C-178.93203836 233.2939035 -178.93203836 233.2939035 -173.43115234 221.57177734 C-172.21056533 218.83484569 -171.19847104 216.0449836 -170.16552734 213.23193359 C-167.13578733 205.29034233 -163.33013315 197.82667511 -159.41552734 190.29443359 C-158.96806152 189.43092285 -158.5205957 188.56741211 -158.05957031 187.67773438 C-153.29022999 178.48612222 -148.48652949 169.32395693 -143.41552734 160.29443359 C-144.03298828 159.66279297 -144.65044922 159.03115234 -145.28662109 158.38037109 C-162.07421737 140.64735463 -174.72066554 116.93511669 -176.41552734 92.29443359 C-176.48924561 91.26358643 -176.48924561 91.26358643 -176.56445312 90.21191406 C-177.64634959 72.71931572 -174.5741957 53.92449118 -166.41552734 38.29443359 C-165.81740234 37.14845703 -165.21927734 36.00248047 -164.60302734 34.82177734 C-150.160172 8.04755321 -126.16543815 -10.68668658 -97.25927734 -19.67431641 C-63.04623417 -28.85342555 -27.82281644 -22.05617424 0 0 Z " fill="#1B3037" transform="translate(493.41552734375,180.70556640625)"/>
<path d="M0 0 C1.50965332 0.56098389 1.50965332 0.56098389 3.04980469 1.13330078 C45.25486738 17.2070842 78.60894525 49.14518481 97.52001953 90.05078125 C103.09828727 102.72896451 107.52570399 116.37394734 110 130 C110.30550781 131.60488281 110.30550781 131.60488281 110.6171875 133.2421875 C118.10711718 179.31038512 103.20320944 225.80666319 76.38745117 263.09277344 C65.69854766 277.70077036 53.37264015 290.6894677 40.625 303.5 C39.98361084 304.14606201 39.34222168 304.79212402 38.68139648 305.45776367 C34.28475928 309.83965277 29.71086249 313.95967067 25 318 C24.48018555 318.45213867 23.96037109 318.90427734 23.42480469 319.37011719 C1.94585651 338.04683541 -21.44448183 354.72870614 -45.953125 369.1875 C-48.00098233 370.40571257 -50.01738608 371.67825739 -52 373 C-57.37977192 372.78263548 -61.21271544 370.47569849 -65.6875 367.75 C-66.78856079 367.08943604 -66.78856079 367.08943604 -67.91186523 366.41552734 C-87.78257533 354.33088285 -106.26622757 340.24395154 -124.19726562 325.47802734 C-125.85769132 324.11667616 -127.52736735 322.76818358 -129.203125 321.42578125 C-133.82887884 317.70369244 -138.2114927 313.93901704 -142.3359375 309.66796875 C-144.09033743 307.90945051 -145.92433565 306.30109065 -147.8125 304.6875 C-155.48423868 298.05650107 -162.46706646 290.74479967 -169 283 C-169.75925781 282.11828125 -170.51851563 281.2365625 -171.30078125 280.328125 C-205.14719606 240.53358442 -223.75032234 193.12648877 -219.80517578 140.39599609 C-216.13340628 103.25030345 -198.43905111 68.81413495 -173 42 C-172.53255371 41.50000488 -172.06510742 41.00000977 -171.58349609 40.48486328 C-153.71230997 21.46890367 -129.41028555 4.95306321 -104 -2 C-102.86175781 -2.32613281 -101.72351563 -2.65226563 -100.55078125 -2.98828125 C-96.71486271 -4.06035384 -92.8856183 -5.12152763 -89 -6 C-88.21882812 -6.17950195 -87.43765625 -6.35900391 -86.6328125 -6.54394531 C-58.5543823 -12.10913058 -26.71432587 -10.07117543 0 0 Z " fill="#1B3037" transform="translate(681,746)"/>
<path d="M0 0 C4.16802348 4.69650493 6.92509081 10.06418678 9.875 15.5625 C10.40802734 16.54814941 10.94105469 17.53379883 11.49023438 18.54931641 C15.12887161 25.30439967 18.636548 32.10379472 22 39 C22.36351562 39.69480469 22.72703125 40.38960938 23.1015625 41.10546875 C25.42435343 45.54714148 27.17428215 50.05124525 28.77734375 54.80078125 C29.83707473 57.57368755 31.02983084 60.16872031 32.30859375 62.84375 C35.31352767 69.39389889 37.42777274 76.1607659 39.48486328 83.05004883 C40.11995294 85.17064759 40.77198365 87.2854954 41.42578125 89.40039062 C43.94264952 97.66552703 45.90105878 105.892698 47.37646484 114.4050293 C47.89632738 117.40227907 48.47156163 120.37444657 49.09375 123.3515625 C50.10123593 128.33278941 50.8153382 133.34063987 51.5 138.375 C52.29009225 144.08094436 53.10242754 149.76756465 54.125 155.4375 C58.30286522 179.93254096 56.50270504 205.75816848 54.25 230.375 C54.17149811 231.26512787 54.09299622 232.15525574 54.01211548 233.07235718 C52.94481454 244.94407404 51.08873949 256.42562881 48.4392395 268.04504395 C47.88576528 270.50843299 47.39564512 272.98183894 46.91796875 275.4609375 C44.08815704 289.74886359 40.44057087 303.89332185 36.375 317.875 C35.95988159 319.30706787 35.95988159 319.30706787 35.53637695 320.76806641 C33.85810456 326.43378692 31.95358824 331.97746384 29.90136719 337.51806641 C28.79540569 340.56335476 27.84878258 343.64138237 26.9375 346.75 C25.55140409 351.32734 23.95150688 355.62862459 22 360 C19.47955578 366.29259553 17.09911144 372.59625867 15.0625 379.0625 C13.33920995 384.35846456 11.05415343 389.18878513 8.46484375 394.11328125 C7.16481981 396.67519509 6.01503555 399.26167242 4.90014648 401.90795898 C-9.14209012 434.54368598 -24.88813831 467.00183815 -42.70947266 497.76660156 C-44.2785064 500.48198572 -45.83210553 503.20602219 -47.38671875 505.9296875 C-58.33709947 525.071016 -69.56603975 543.99026205 -81.75 562.375 C-82.442146 563.42252441 -83.13429199 564.47004883 -83.84741211 565.54931641 C-84.81239624 566.99056885 -84.81239624 566.99056885 -85.796875 568.4609375 C-86.36760742 569.31478027 -86.93833984 570.16862305 -87.52636719 571.04833984 C-89 573 -89 573 -91 574 C-91.01401855 572.90836548 -91.01401855 572.90836548 -91.02832031 571.79467773 C-91.59752731 536.23877208 -98.38966783 504.45411795 -115 473 C-115.31163086 472.4033252 -115.62326172 471.80665039 -115.94433594 471.19189453 C-123.35372849 457.13757056 -133.00069913 444.44222574 -144 433 C-144.66418945 432.29713867 -144.66418945 432.29713867 -145.34179688 431.58007812 C-160.02060995 416.09584321 -177.25265845 404.57308994 -196.20800781 394.91845703 C-197.40756487 394.30364318 -198.59973127 393.67420181 -199.78417969 393.03076172 C-205.7714544 389.85983883 -212.06653784 387.8277928 -218.5 385.75 C-219.60859375 385.38648438 -220.7171875 385.02296875 -221.859375 384.6484375 C-224.57116482 383.76009256 -227.28466578 382.87743867 -230 382 C-226.23169182 379.79101295 -222.1626776 378.98820155 -217.94921875 378.0390625 C-216.29927981 377.65413678 -214.64971781 377.26759264 -213.00048828 376.87963867 C-212.13425842 376.67615814 -211.26802856 376.47267761 -210.37554932 376.26303101 C-155.66294487 363.27653636 -99.48358851 336.13862717 -63 292 C-62.195625 291.09507812 -61.39125 290.19015625 -60.5625 289.2578125 C-48.72112384 275.86101042 -39.3863589 260.74353921 -31 245 C-30.38511719 243.86433594 -29.77023437 242.72867188 -29.13671875 241.55859375 C-8.70662123 202.4650812 -1.68894757 156.46552894 -8 113 C-8.1853833 111.64092529 -8.1853833 111.64092529 -8.37451172 110.25439453 C-12.29932998 81.93385743 -21.17686771 55.54775775 -34.37109375 30.21484375 C-35.74190309 27.5093855 -36.93321167 24.83583429 -38 22 C-36.88882813 21.56429688 -35.77765625 21.12859375 -34.6328125 20.6796875 C-21.86045514 15.59833561 -9.86582246 9.86582246 0 0 Z " fill="#218446" transform="translate(902,341)"/>
<path d="M0 0 C0.76606567 0.58273682 0.76606567 0.58273682 1.54760742 1.17724609 C3.68763508 2.79949284 5.84450355 4.39837089 8 6 C8.73605469 6.56460937 9.47210938 7.12921875 10.23046875 7.7109375 C18.90399425 14.13254264 28.71308401 18.7656169 39 22 C38.53851563 22.88816406 38.07703125 23.77632813 37.6015625 24.69140625 C28.62217755 42.1827433 20.76993177 59.86872956 15.59960938 78.86767578 C15.07962375 80.71684291 14.491081 82.54646866 13.890625 84.37109375 C5.03403911 111.65619105 2.11133432 147.21665469 8.2109375 175.3046875 C9.00645723 179.0302403 9.52665695 182.72127833 10 186.5 C10.6371136 191.06857072 11.50239768 195.19884279 13.109375 199.515625 C13.79196193 201.41968328 14.39136452 203.3537363 14.953125 205.296875 C25.56168117 241.90386459 45.95635714 273.52713284 72 301 C72.47308594 301.50176758 72.94617188 302.00353516 73.43359375 302.52050781 C80.52784886 309.99446899 88.07142867 316.48874156 96.29150391 322.69287109 C97.90791734 323.92954979 99.49225201 325.20783295 101.07421875 326.48828125 C120.55544512 342.12813904 144.22847664 355.36371763 168 363 C169.61065391 363.62948025 171.21528683 364.27465653 172.8125 364.9375 C183.08624667 369.09431197 193.45094098 372.90905965 204.30859375 375.2109375 C209.33062802 376.28443054 214.31882764 377.48993567 219.3125 378.6875 C221.16272553 379.12905247 223.01298317 379.57047039 224.86328125 380.01171875 C226.24220273 380.34108208 227.62111512 380.67048347 229 381 C226.09286931 382.93808713 223.86762034 383.78102154 220.5625 384.8125 C192.94327459 393.88738835 169.17577072 409.25410448 148 429 C146.89011719 430.02867187 146.89011719 430.02867187 145.7578125 431.078125 C112.61214461 462.92627565 94.739771 508.74371618 92 554 C91.94505371 554.88880859 91.89010742 555.77761719 91.83349609 556.69335938 C91.50758465 562.1271396 91.23378097 567.56151628 91 573 C85.73986688 568.36463365 82.33620797 562.64806512 78.625 556.75 C77.92528076 555.6460791 77.22556152 554.5421582 76.50463867 553.40478516 C59.54538742 526.57218888 43.98913837 498.97154757 29 471 C28.55027832 470.1651709 28.10055664 469.3303418 27.63720703 468.47021484 C16.88945584 448.50080359 7.441739 427.93514832 -1.8737793 407.26904297 C-2.48726669 405.9097401 -3.10094923 404.55052529 -3.71484375 403.19140625 C-4.00763718 402.54267548 -4.3004306 401.8939447 -4.60209656 401.22555542 C-6.08280904 397.96140535 -7.61002479 394.7357529 -9.25390625 391.55078125 C-11.1722904 387.64963764 -12.61627019 383.73766112 -14 379.625 C-14.5206257 378.11536392 -15.04275192 376.60624445 -15.56640625 375.09765625 C-15.81406738 374.38367676 -16.06172852 373.66969727 -16.31689453 372.93408203 C-17.41011189 369.83884688 -18.63480203 366.80411003 -19.875 363.765625 C-25.8003989 349.19901937 -31.55244533 334.59041263 -35.1953125 319.26171875 C-36.1689511 315.31517395 -37.26971147 311.41131289 -38.375 307.5 C-40.92116699 298.44749987 -43.22229971 289.33973228 -45.45288086 280.20483398 C-45.80139555 278.80035555 -46.16047357 277.3984261 -46.53344727 276.00024414 C-47.95795961 270.61310831 -48.79323058 265.20263258 -49.5625 259.6875 C-49.81132253 257.92022204 -50.06252171 256.15327662 -50.31640625 254.38671875 C-50.42412354 253.61545654 -50.53184082 252.84419434 -50.64282227 252.04956055 C-50.98083545 249.80972728 -50.98083545 249.80972728 -52 247 C-58.85879694 208.59848719 -59.00622168 162.82942879 -49 125 C-48.66208484 123.08765048 -48.34738885 121.17096479 -48.0625 119.25 C-47.05854699 113.05638223 -45.62775428 107.05692258 -44 101 C-43.82065918 100.32662598 -43.64131836 99.65325195 -43.45654297 98.95947266 C-36.51651102 72.99946991 -36.51651102 72.99946991 -31.015625 61.27734375 C-29.79503798 58.54041209 -28.7829437 55.75055001 -27.75 52.9375 C-25.02950423 45.80650352 -21.7055761 39.08411039 -18.19921875 32.31591797 C-16.8745665 29.75776422 -15.56280879 27.19315639 -14.25 24.62890625 C-13.29255221 22.77298039 -12.33422696 20.91750693 -11.375 19.0625 C-10.9320459 18.19882812 -10.4890918 17.33515625 -10.03271484 16.4453125 C-7.03795441 10.70139075 -3.69899073 5.31699776 0 0 Z " fill="#218346" transform="translate(351,341)"/>
<path d="M0 0 C0 21.12 0 42.24 0 64 C3.3 63.34 6.6 62.68 10 62 C16.3971227 61.60633091 20.42577443 62.53906098 27 64 C27.33 42.88 27.66 21.76 28 0 C35.85668199 0.71424382 42.00502734 1.55259281 49.25 4.0625 C50.1567749 4.37268066 51.0635498 4.68286133 51.99780273 5.00244141 C70.98053612 11.71958918 88.20435332 23.29566418 101 39 C101.33 39.99 101.66 40.98 102 42 C95.15468718 46.74717173 88.03943839 50.97701863 80.83700562 55.14920044 C69.76288264 61.56686491 58.77751254 68.0922085 48 75 C48.37511719 75.4846875 48.75023437 75.969375 49.13671875 76.46875 C54.99101442 84.13684508 59.38506591 90.35763069 61 100 C69.276143 95.53377639 77.46363211 90.92203718 85.625 86.25 C86.86050482 85.5442542 88.09601923 84.83852519 89.33154297 84.1328125 C97.00075486 79.74694767 104.64304181 75.31778988 112.20166016 70.74316406 C116.78597844 68 116.78597844 68 119 68 C122.86491202 79.32920775 126.39892138 89.93835574 127 102 C127.04463379 102.73460449 127.08926758 103.46920898 127.13525391 104.22607422 C128.07703227 121.46233057 125.71100812 138.97859867 119 155 C114.71743005 154.41821691 111.81739473 152.90807189 108.16015625 150.640625 C107.60476166 150.29952698 107.04936707 149.95842896 106.47714233 149.60699463 C105.28606012 148.87445023 104.09702638 148.13856645 102.90988159 147.3996582 C100.41751501 145.84861445 97.91508065 144.31418042 95.41304016 142.77880859 C94.13998335 141.99740308 92.86743263 141.21517245 91.59538269 140.43212891 C85.57745019 136.72947021 79.51810186 133.09881814 73.4375 129.5 C72.52299072 128.95504883 71.60848145 128.41009766 70.66625977 127.84863281 C69.82635498 127.35202148 68.9864502 126.85541016 68.12109375 126.34375 C67.3933374 125.91255859 66.66558105 125.48136719 65.91577148 125.03710938 C63.88095962 123.863905 63.88095962 123.863905 61 123 C60.814375 124.258125 60.62875 125.51625 60.4375 126.8125 C58.53864778 135.39802468 53.13760633 141.9638365 47 148 C55.73419617 153.41282986 64.52474916 158.71594762 73.375 163.9375 C75.73345626 165.3313834 78.09137817 166.72616919 80.44921875 168.12109375 C81.57118652 168.7847998 82.6931543 169.44850586 83.84912109 170.13232422 C89.91547461 173.72814046 95.96103782 177.35841477 102 181 C100.56246045 184.31002696 98.77516456 186.43889464 96.1875 188.9375 C95.46691406 189.63746094 94.74632812 190.33742188 94.00390625 191.05859375 C93.34261719 191.69925781 92.68132812 192.33992187 92 193 C91.21625 193.825 90.4325 194.65 89.625 195.5 C74.33457766 210.06230699 49.87182712 224 28 224 C27.67 202.88 27.34 181.76 27 160 C18.42 160 9.84 160 1 160 C0.67 181.12 0.34 202.24 0 224 C-28.72815553 219.89597778 -52.18788032 207.43334039 -71.8125 186 C-72.534375 185.01 -73.25625 184.02 -74 183 C-72.69192568 179.07577705 -71.2371064 178.70738195 -67.671875 176.70703125 C-66.56803467 176.08062744 -65.46419434 175.45422363 -64.3269043 174.80883789 C-63.449944 174.31941208 -63.449944 174.31941208 -62.55526733 173.82009888 C-60.14366685 172.47407888 -57.74327753 171.10866448 -55.34233093 169.74375916 C-53.59392287 168.75001465 -51.84409132 167.758776 -50.09423828 166.76757812 C-44.64051426 163.65214796 -39.31513287 160.34575168 -34 157 C-31.60755372 155.49451268 -29.21104035 153.99575413 -26.8125 152.5 C-25.21341797 151.49453125 -25.21341797 151.49453125 -23.58203125 150.46875 C-21 149 -21 149 -19 149 C-19 148.34 -19 147.68 -19 147 C-19.99 146.67 -20.98 146.34 -22 146 C-26.90558814 139.59483634 -30.57442727 132.27736879 -34 125 C-38.39386668 125.59132411 -41.78043985 127.30852589 -45.5625 129.5 C-46.22290283 129.87656738 -46.88330566 130.25313477 -47.5637207 130.64111328 C-58.53726556 136.96263167 -69.31320375 143.63394947 -80.1159668 150.24169922 C-81.06769775 150.82193848 -82.01942871 151.40217773 -83 152 C-83.88792236 152.57121582 -84.77584473 153.14243164 -85.69067383 153.73095703 C-88 155 -88 155 -91 155 C-91.77913576 152.77345788 -92.54818195 150.54413349 -93.3125 148.3125 C-93.74175781 147.07113281 -94.17101562 145.82976562 -94.61328125 144.55078125 C-98.04752615 133.66402526 -99.50108976 123.54741997 -99.375 112.125 C-99.37067963 111.46669189 -99.36635925 110.80838379 -99.36190796 110.13012695 C-99.2450363 94.94003876 -96.49411184 82.09359125 -91 68 C-87.34290821 69.37300618 -84.04409192 71.02306228 -80.66796875 72.984375 C-79.63293213 73.58362793 -78.59789551 74.18288086 -77.53149414 74.80029297 C-76.42797607 75.44369629 -75.32445801 76.08709961 -74.1875 76.75 C-73.04853271 77.41016113 -71.90956543 78.07032227 -70.73608398 78.75048828 C-64.83237754 82.17353619 -58.94138046 85.61810493 -53.0546875 89.0703125 C-51.41657104 90.0298584 -51.41657104 90.0298584 -49.74536133 91.00878906 C-47.65497812 92.23444598 -45.5662182 93.46287647 -43.47924805 94.69433594 C-42.53863525 95.24637695 -41.59802246 95.79841797 -40.62890625 96.3671875 C-39.80463135 96.85300293 -38.98035645 97.33881836 -38.13110352 97.83935547 C-35.92083565 99.12418355 -35.92083565 99.12418355 -33 100 C-32.95875 99.071875 -32.9175 98.14375 -32.875 97.1875 C-31.7143972 89.03012033 -26.27032303 82.04537054 -21 76 C-21 75.34 -21 74.68 -21 74 C-21.84602783 73.52256348 -22.69205566 73.04512695 -23.5637207 72.55322266 C-32.81706386 67.3104819 -41.91444456 61.84186904 -50.97631836 56.27636719 C-58.53999712 51.63546499 -66.15725691 47.15714233 -74 43 C-73.15540012 38.83796253 -71.09165284 36.42141684 -68.25 33.375 C-67.76120361 32.84938477 -67.27240723 32.32376953 -66.76879883 31.78222656 C-49.91838488 14.14689676 -24.64710182 0 0 0 Z " fill="#248247" transform="translate(613,793)"/>
<path d="M0 0 C1.07378906 0.45761719 2.14757812 0.91523438 3.25390625 1.38671875 C14.5972839 6.67450016 23.96562031 14.45319 33 23 C33.81210937 23.74765625 34.62421875 24.4953125 35.4609375 25.265625 C58.15452573 46.88538413 75.32103821 80.5391853 76.28344727 112.07714844 C76.52673157 130.27236088 72.56488612 148.20797001 60 162 C59.07380859 163.04607422 59.07380859 163.04607422 58.12890625 164.11328125 C48.83311034 174.04500686 35.86047845 180.64487826 22.1875 181.37109375 C1.29939028 181.86804801 -14.98203909 176.1733239 -30.4765625 161.53125 C-39.72821202 152.2509576 -48.12190564 142.4680727 -56 132 C-56.42522949 131.44231934 -56.85045898 130.88463867 -57.28857422 130.31005859 C-75.4036178 106.44221763 -88.49285275 78.57498918 -86 48 C-83.53323968 30.50197355 -75.71516273 14.94679095 -61.50390625 4.09375 C-43.40413112 -8.3055154 -19.84661314 -8.46104205 0 0 Z " fill="#1C3137" transform="translate(759,375)"/>
<path d="M0 0 C1.14533203 0.00499512 2.29066406 0.00999023 3.47070312 0.01513672 C12.04370086 0.19221431 18.57600536 1.22826351 26.125 5.5 C27.00671875 5.94601562 27.8884375 6.39203125 28.796875 6.8515625 C43.01877439 14.5658655 51.41541711 27.35824671 56.125 42.5 C62.2838454 67.64595945 55.32300847 93.87122669 42.27001953 115.65380859 C32.10756781 132.03940773 19.97727753 147.15636116 7.125 161.5 C6.66625488 162.01224121 6.20750977 162.52448242 5.73486328 163.05224609 C-6.99443678 177.04668365 -22.76891164 185.62227621 -41.70703125 186.72265625 C-57.33259613 187.20855147 -70.74210263 183.2518348 -83.125 173.375 C-95.9323574 161.21611639 -103.64975963 143.47654116 -104.10595703 125.92163086 C-104.44796253 89.16480916 -87.99418051 56.52535585 -62.875 30.5 C-62.07449219 29.63632812 -61.27398437 28.77265625 -60.44921875 27.8828125 C-44.33257718 10.94846899 -23.67491573 -0.13570278 0 0 Z " fill="#1B3036" transform="translate(522.875,369.5)"/>
<path d="M0 0 C0.86181885 0.18771973 1.7236377 0.37543945 2.61157227 0.56884766 C9.53630714 2.34165716 15.21699498 5.697219 19.5 11.5 C21.85060033 16.75428309 22.63838291 22.20071385 21.5625 27.875 C13.9459585 42.65150557 0.54667427 50.64971396 -14.55078125 55.97265625 C-20.66482558 57.875 -20.66482558 57.875 -23.4375 57.875 C-23.91773162 70.0771542 -23.91773162 70.0771542 -19.0703125 80.6484375 C-12.38194156 85.67271615 -5.67359123 86.93982446 2.5625 85.875 C11.74889861 83.92371247 19.85223736 80.58526264 26.5625 73.875 C30.51985353 73.55585859 33.35674398 73.42284149 37.0625 74.8125 C39.16992076 77.71020354 39.30668881 79.99670986 39.12890625 83.53515625 C37.65079551 89.64128267 31.75962741 92.89685867 26.75 96.0625 C13.72698495 103.49854218 0.57461652 105.859676 -14.23046875 103.19140625 C-20.46815763 101.42905804 -24.84385806 99.06293349 -29.8046875 94.953125 C-31.48347134 93.5853677 -31.48347134 93.5853677 -34.0625 94.25 C-35.7415265 95.3988076 -37.40701952 96.56751394 -39.0625 97.75 C-50.60884166 105.01991882 -63.81635583 105.73043192 -77.04296875 103.1796875 C-87.10448203 100.08183477 -96.05539782 94.35347427 -103.4375 86.875 C-104.98336876 83.78326248 -104.73109521 81.28070448 -104.4375 77.875 C-102.9375 75.4375 -102.9375 75.4375 -100.4375 73.875 C-95.81238004 72.90129053 -93.75421857 73.05583457 -89.71875 75.56640625 C-87.81178665 76.9887704 -85.92111193 78.43321912 -84.046875 79.8984375 C-76.92420506 85.29375335 -68.23880019 86.89053464 -59.4375 85.875 C-53.21816023 84.17208554 -48.52899174 81.89037698 -44.4375 76.875 C-42.7876993 73.57539859 -43.05491639 69.88372116 -42.875 66.25 C-42.83181641 65.44820312 -42.78863281 64.64640625 -42.74414062 63.8203125 C-42.63798543 61.8387489 -42.53723145 59.85689729 -42.4375 57.875 C-43.04086182 57.80385986 -43.64422363 57.73271973 -44.26586914 57.65942383 C-58.39719775 55.80860901 -73.42956562 46.68570057 -82.21875 35.6015625 C-87.0331088 28.78122086 -87.36849265 22.07408296 -86.4375 13.875 C-83.96503325 8.33667448 -79.16900217 4.35526532 -73.51733398 2.11328125 C-71.50187154 1.52930812 -69.49050387 1.0580253 -67.4375 0.625 C-66.45716797 0.38523437 -66.45716797 0.38523437 -65.45703125 0.140625 C-45.38997111 -4.37728723 -20.12640763 -4.48961614 0 0 Z " fill="#1D3138" transform="translate(659.4375,532.125)"/>
<path d="M0 0 C3.86491202 11.32920775 7.39892138 21.93835574 8 34 C8.04463379 34.73460449 8.08926758 35.46920898 8.13525391 36.22607422 C9.07703227 53.46233057 6.71100812 70.97859867 0 87 C-4.25758317 86.41842667 -7.13533972 84.93452303 -10.76953125 82.67578125 C-11.31959335 82.33841446 -11.86965546 82.00104767 -12.43638611 81.65345764 C-14.85622341 80.16639011 -17.26269478 78.65857645 -19.66638184 77.14556885 C-26.37324193 72.92524494 -32.98312599 68.89576206 -40.18359375 65.56640625 C-55.90319305 58.07909003 -55.90319305 58.07909003 -58.01367188 52.15429688 C-59.03634539 45.33505894 -58.35626765 38.72743532 -57 32 C-56.33806641 31.6189209 -55.67613281 31.2378418 -54.99414062 30.84521484 C-42.5423853 23.67452918 -30.09879354 16.49056364 -17.6875 9.25 C-16.6871875 8.66653809 -15.686875 8.08307617 -14.65625 7.48193359 C-9.45766273 4.45604151 -9.45766273 4.45604151 -4.32348633 1.32324219 C-2 0 -2 0 0 0 Z " fill="#F9F9F7" transform="translate(732,861)"/>
<path d="M0 0 C3.63894928 1.36849725 6.9324108 3.00460642 10.296875 4.94921875 C11.84193726 5.84012207 11.84193726 5.84012207 13.41821289 6.74902344 C14.51770264 7.3887207 15.61719238 8.02841797 16.75 8.6875 C17.88493896 9.3465332 19.01987793 10.00556641 20.18920898 10.68457031 C23.18685566 12.42801753 26.18043478 14.1783376 29.17279053 15.93084717 C30.99629731 16.99783345 32.82147801 18.06190728 34.64697266 19.12548828 C38.12627665 21.15447985 41.59501602 23.20087151 45.0625 25.25 C46.1443457 25.88123779 47.22619141 26.51247559 48.34082031 27.1628418 C49.33307617 27.75363525 50.32533203 28.34442871 51.34765625 28.953125 C52.66262085 29.72897949 52.66262085 29.72897949 54.00415039 30.52050781 C56 32 56 32 57 35 C57.08106686 36.55421729 57.10756898 38.11167027 57.09765625 39.66796875 C57.09282227 41.00698242 57.09282227 41.00698242 57.08789062 42.37304688 C57.07532227 43.76620117 57.07532227 43.76620117 57.0625 45.1875 C57.05798828 46.12787109 57.05347656 47.06824219 57.04882812 48.03710938 C57.03704626 50.35813712 57.02059558 52.67903644 57 55 C56.51047852 55.27448975 56.02095703 55.54897949 55.51660156 55.83178711 C40.41087606 64.32658933 25.58404058 73.24376906 10.8046875 82.28930664 C9.87914062 82.85383545 8.95359375 83.41836426 8 84 C7.11570312 84.56904053 6.23140625 85.13808105 5.3203125 85.72436523 C3 87 3 87 0 87 C-0.77913576 84.77345788 -1.54818195 82.54413349 -2.3125 80.3125 C-2.74175781 79.07113281 -3.17101562 77.82976562 -3.61328125 76.55078125 C-7.04752615 65.66402526 -8.50108976 55.54741997 -8.375 44.125 C-8.37067963 43.46669189 -8.36635925 42.80838379 -8.36190796 42.13012695 C-8.2450363 26.94003876 -5.49411184 14.09359125 0 0 Z " fill="#FBFAF8" transform="translate(522,861)"/>
<path d="M0 0 C7.85668199 0.71424382 14.00502734 1.55259281 21.25 4.0625 C22.1567749 4.37268066 23.0635498 4.68286133 23.99780273 5.00244141 C42.98053612 11.71958918 60.20435332 23.29566418 73 39 C73.33 39.99 73.66 40.98 74 42 C66.52830555 47.17814446 58.73151434 51.75460479 50.875 56.3125 C48.28823044 57.81497982 45.70223977 59.31878613 43.1171875 60.82421875 C42.49245544 61.18785522 41.86772339 61.5514917 41.22406006 61.92614746 C37.76371063 63.94720798 34.33650403 66.00957356 30.9453125 68.14453125 C30.25711426 68.57531982 29.56891602 69.0061084 28.85986328 69.44995117 C27.14927676 70.53068797 25.4491047 71.62786259 23.75 72.7265625 C21 74 21 74 18.43359375 73.89453125 C15.71577221 72.89552461 13.49420318 71.63369526 11.0625 70.0625 C7.24150668 67.59792903 4.51287669 66.50429223 0 65 C0 43.55 0 22.1 0 0 Z " fill="#FAF9F7" transform="translate(641,793)"/>
<path d="M0 0 C3.92636929 0.33790823 6.68584527 1.7772818 10.0078125 3.81640625 C10.98242432 4.4086499 11.95703613 5.00089355 12.96118164 5.61108398 C14.0052417 6.25505127 15.04930176 6.89901855 16.125 7.5625 C18.35494792 8.92012669 20.58543709 10.27686466 22.81640625 11.6328125 C23.39420334 11.98522507 23.97200043 12.33763763 24.56730652 12.70072937 C31.36201555 16.84203842 38.21227439 20.88895028 45.0625 24.9375 C46.26389032 25.64842478 47.46522634 26.35944135 48.66650391 27.07055664 C51.44392201 28.71440586 54.22175254 30.35755301 57 32 C55.44938843 35.27275661 53.80329895 37.41172854 51.1875 39.9375 C50.46691406 40.63746094 49.74632812 41.33742188 49.00390625 42.05859375 C48.01197266 43.01958984 48.01197266 43.01958984 47 44 C46.21625 44.825 45.4325 45.65 44.625 46.5 C29.33457766 61.06230699 4.87182712 75 -17 75 C-17.1157928 66.57695357 -17.20466267 58.15423897 -17.25906086 49.73059368 C-17.28516804 45.81921489 -17.32058464 41.90838011 -17.37719727 37.99731445 C-17.43147998 34.22364259 -17.4614121 30.45049428 -17.47438622 26.67646217 C-17.4836331 25.23586595 -17.50169059 23.79529877 -17.52865028 22.35492516 C-17.56487938 20.33935816 -17.56704183 18.32326553 -17.56762695 16.30737305 C-17.57873001 15.15931686 -17.58983307 14.01126068 -17.60127258 12.82841492 C-17 10 -17 10 -14.62736511 8.18806458 C-13.76033463 7.79600327 -12.89330414 7.40394196 -12 7 C-10.71029297 6.34837891 -10.71029297 6.34837891 -9.39453125 5.68359375 C-7.6658208 4.84931443 -5.93664976 4.01598886 -4.20703125 3.18359375 C-1.87970789 2.07235219 -1.87970789 2.07235219 0 0 Z " fill="#FAF9F7" transform="translate(658,942)"/>
<path d="M0 0 C0 21.45 0 42.9 0 65 C-3.3 66.32 -6.6 67.64 -10 69 C-11.258125 69.928125 -12.51625 70.85625 -13.8125 71.8125 C-17 74 -17 74 -19.30517578 73.85546875 C-22.62174155 72.80262888 -25.31180648 71.27852561 -28.3046875 69.5 C-28.90128174 69.14810104 -29.49787598 68.79620209 -30.11254883 68.43363953 C-32.03750908 67.29592287 -33.95624706 66.14814842 -35.875 65 C-37.1938117 64.217896 -38.51298574 63.43640267 -39.83251953 62.65551758 C-43.56063478 60.44637649 -47.28132103 58.22497849 -51 56 C-51.89460937 55.46552246 -52.78921875 54.93104492 -53.7109375 54.38037109 C-56.83033526 52.51525336 -59.94593017 50.64454106 -63.0546875 48.76171875 C-66.34458106 46.79389117 -69.66625393 44.89246487 -73 43 C-72.48619904 38.83030757 -70.00499901 36.3285189 -67.25 33.375 C-66.76120361 32.84938477 -66.27240723 32.32376953 -65.76879883 31.78222656 C-49.32065491 14.56790509 -24.16748572 0 0 0 Z " fill="#FBFAF8" transform="translate(612,793)"/>
<path d="M0 0 C3.2837484 1.52578208 6.25311922 3.48158306 9.30078125 5.42578125 C12.3765712 7.2540199 12.3765712 7.2540199 17.93359375 8.8984375 C17.93359375 30.3484375 17.93359375 51.7984375 17.93359375 73.8984375 C-10.376256 71.72075675 -33.86270234 57.66728694 -52.87890625 36.8984375 C-53.60078125 35.9084375 -54.32265625 34.9184375 -55.06640625 33.8984375 C-53.75833193 29.97421455 -52.30351265 29.60581945 -48.73828125 27.60546875 C-47.63444092 26.97906494 -46.53060059 26.35266113 -45.39331055 25.70727539 C-44.80867035 25.38099152 -44.22403015 25.05470764 -43.62167358 24.71853638 C-41.2100731 23.37251638 -38.80968378 22.00710198 -36.40873718 20.64219666 C-34.66032912 19.64845215 -32.91049757 18.6572135 -31.16064453 17.66601562 C-24.49427639 13.85786466 -17.98250494 9.80079623 -11.55078125 5.609375 C-10.95821533 5.22966553 -10.36564941 4.84995605 -9.75512695 4.45874023 C-8.11187636 3.405163 -6.47747772 2.3378155 -4.84375 1.26953125 C-2.06640625 -0.1015625 -2.06640625 -0.1015625 0 0 Z " fill="#FAFAF8" transform="translate(594.06640625,942.1015625)"/>
<path d="M0 0 C6.58099049 3.83370793 10.85674909 9.44215067 12.9921875 16.71484375 C14.164702 22.98208941 12.76720622 28.68046018 9.73828125 34.21875 C6.69471094 38.54718083 2.37819516 42.15179929 -2.56640625 44.07421875 C-9.58021322 44.92338746 -16.60669972 45.36294024 -22.75390625 41.44921875 C-29.04160482 36.40251332 -31.7712427 30.68769474 -32.89453125 22.7578125 C-33.39232406 15.52850323 -31.1346831 10.61325443 -26.56640625 5.07421875 C-19.62494708 -2.18539063 -9.35003159 -3.37284245 0 0 Z " fill="#F1F6F1" transform="translate(636.56640625,882.92578125)"/>
<path d="M0 0 C5.27980092 3.09260015 9.95950158 7.61431565 12.71484375 13.125 C13.69925845 25.77094274 13.69925845 25.77094274 9.71484375 31.125 C4.1400332 37.0388193 -0.57395378 39.70435692 -8.78515625 40.4375 C-15.10779956 39.87297828 -19.74557932 37.46575731 -23.99609375 32.8515625 C-27.68283546 27.913563 -28.88030558 22.38549629 -28.62890625 16.2890625 C-27.64156476 10.07329901 -23.74930904 6.27139947 -19.06640625 2.38671875 C-13.35118337 -1.66156412 -6.64756613 -2.54539284 0 0 Z " fill="#F8F7F6" transform="translate(744.28515625,442.875)"/>
<path d="M0 0 C5.08599553 2.27891723 8.80851268 5.63478002 11.78125 10.34765625 C12.65625 13.16015625 12.65625 13.16015625 12.78125 16.34765625 C12.88953125 17.49427734 12.88953125 17.49427734 13 18.6640625 C13.40136841 25.23647021 12.02168213 29.31505548 7.78125 34.34765625 C3.27241758 38.74087758 -0.92994128 40.16600476 -7.15625 40.66015625 C-14.12755745 40.44769736 -19.32376742 37.13138923 -24.21875 32.34765625 C-28.39028166 26.78561404 -27.96594706 19.99601188 -27.21875 13.34765625 C-22.37804296 2.69810076 -11.3741824 -3.34416983 0 0 Z " fill="#F8F8F6" transform="translate(524.21875,442.65234375)"/>
<path d="M0 0 C4.324855 2.20322802 7.60172751 4.75690252 10 9 C10.67302515 13.58262071 10.58809792 17.57618398 8.8125 21.875 C6.25864611 24.86917353 3.5292376 27.2353812 0 29 C-5.25910247 29.40454634 -8.51497687 28.79068106 -13 26 C-16.30685432 23.14001788 -17.8102451 21.15298826 -18.203125 16.6953125 C-18.36509827 7.81377804 -18.36509827 7.81377804 -15 4 C-10.27143005 -0.16564495 -6.086394 -1.08178278 0 0 Z " fill="#238346" transform="translate(631,890)"/>
<path d="M0 0 C0.33 0 0.66 0 1 0 C1.01030746 0.59690643 1.02061493 1.19381287 1.03123474 1.80880737 C1.13917388 8.00530229 1.25378188 14.20164807 1.37231445 20.39794922 C1.41570376 22.71237069 1.45737584 25.026825 1.49731445 27.34130859 C1.55492032 30.66253573 1.61864251 33.98359692 1.68359375 37.3046875 C1.70030624 38.34430634 1.71701874 39.38392517 1.73423767 40.45504761 C1.75418289 41.41589264 1.77412811 42.37673767 1.79467773 43.36669922 C1.81022202 44.21497284 1.8257663 45.06324646 1.84178162 45.93722534 C1.87429958 48.06318305 1.87429958 48.06318305 3 50 C2.91219597 52.04498425 2.75758462 54.08744948 2.5625 56.125 C2.46066406 57.22070312 2.35882813 58.31640625 2.25390625 59.4453125 C2.12822266 60.70988281 2.12822266 60.70988281 2 62 C1.67 62 1.34 62 1 62 C0.08229003 54.5273396 -0.13341811 47.17196438 -0.09765625 39.6484375 C-0.0962413 38.50839264 -0.09482635 37.36834778 -0.09336853 36.1937561 C-0.08781479 32.58747627 -0.07527107 28.98126076 -0.0625 25.375 C-0.05747902 22.91536549 -0.05291716 20.45572999 -0.04882812 17.99609375 C-0.03786055 11.99737424 -0.02116914 5.99869172 0 0 Z " fill="#64A87C" transform="translate(296,507)"/>
<path d="M0 0 C0.33 0 0.66 0 1 0 C1.02915731 4.04165139 1.04685173 8.0832755 1.0625 12.125 C1.07087891 13.26710938 1.07925781 14.40921875 1.08789062 15.5859375 C1.09111328 16.69453125 1.09433594 17.803125 1.09765625 18.9453125 C1.10289307 19.96125488 1.10812988 20.97719727 1.11352539 22.02392578 C0.99652309 25.09114726 0.56776417 27.98633134 0 31 C-2.25414782 27.61877827 -2.24544447 26.3935272 -2.1875 22.4375 C-2.18105469 21.46683594 -2.17460938 20.49617187 -2.16796875 19.49609375 C-2 17 -2 17 -1 15 C-0.76827173 12.45384991 -0.58105471 9.92603775 -0.4375 7.375 C-0.39431641 6.66859375 -0.35113281 5.9621875 -0.30664062 5.234375 C-0.20055249 3.48981463 -0.09977111 1.74493303 0 0 Z " fill="#526367" transform="translate(792,891)"/>
<path d="M0 0 C0.66 0.66 1.32 1.32 2 2 C0.08539961 3.77311263 -1.83157493 5.54353362 -3.75 7.3125 C-4.55824219 8.06176758 -4.55824219 8.06176758 -5.3828125 8.82617188 C-8.15603952 11.37956993 -10.92190229 13.81096449 -14 16 C-14.66 15.67 -15.32 15.34 -16 15 C-14.08643227 13.05935348 -12.16932062 11.122443 -10.25 9.1875 C-9.71117187 8.64029297 -9.17234375 8.09308594 -8.6171875 7.52929688 C-5.88259137 4.77802637 -3.20316096 2.21577882 0 0 Z " fill="#2A3F45" transform="translate(767,179)"/>
<path d="M0 0 C1.43836751 0.11458693 2.87570966 0.24209116 4.3125 0.375 C5.51326172 0.47941406 5.51326172 0.47941406 6.73828125 0.5859375 C9 1 9 1 12 3 C6.555 4.485 6.555 4.485 1 6 C0.34 5.34 -0.32 4.68 -1 4 C-0.625 1.875 -0.625 1.875 0 0 Z " fill="#268F4D" transform="translate(568,720)"/>
<path d="M0 0 C0.99 0.33 1.98 0.66 3 1 C2.67 2.32 2.34 3.64 2 5 C1.34 5 0.68 5 0 5 C-0.10957031 5.56847656 -0.21914063 6.13695312 -0.33203125 6.72265625 C-1.37938166 11.82316758 -2.79271753 16.284442 -5 21 C-6.05711427 17.80042565 -5.95184778 16.03354912 -4.78515625 12.890625 C-4.51123047 12.13652344 -4.23730469 11.38242187 -3.95507812 10.60546875 C-3.51325195 9.43951172 -3.51325195 9.43951172 -3.0625 8.25 C-2.77181641 7.45722656 -2.48113281 6.66445313 -2.18164062 5.84765625 C-1.46405186 3.89487371 -0.73329094 1.94694059 0 0 Z " fill="#D7DBDC" transform="translate(522,861)"/>
<path d="M0 0 C0.33 0 0.66 0 1 0 C1.22424141 7.36259293 0.90120099 13.87049629 -1 21 C-2.46800688 19.03561669 -3.03217444 17.53263574 -2.88378906 15.07617188 C-2.52249521 12.78558931 -2.09207827 10.52135643 -1.625 8.25 C-1.47289062 7.45722656 -1.32078125 6.66445313 -1.1640625 5.84765625 C-0.78786303 3.8961215 -0.39549684 1.94771562 0 0 Z " fill="#263A40" transform="translate(790,919)"/>
<path d="M0 0 C4.41510774 0.48713098 6.30446645 1.85053197 9.3125 5.0625 C10.00988281 5.79597656 10.70726562 6.52945313 11.42578125 7.28515625 C11.94527344 7.85105469 12.46476563 8.41695312 13 9 C12.34 9.66 11.68 10.32 11 11 C7.33333333 7.33333333 3.66666667 3.66666667 0 0 Z " fill="#25383F" transform="translate(733,779)"/>
<path d="M0 0 C2.54115245 2.54115245 2.43562323 4.55221279 2.75390625 8.02734375 C2.96047055 10.2086702 2.96047055 10.2086702 4 13 C3.0625 15.6875 3.0625 15.6875 2 18 C1.01 18 0.02 18 -1 18 C-0.83628906 17.48953125 -0.67257812 16.9790625 -0.50390625 16.453125 C0.16698481 13.18708172 0.0933456 10.0813253 0.0625 6.75 C0.05347656 5.48671875 0.04445313 4.2234375 0.03515625 2.921875 C0.02355469 1.95765625 0.01195312 0.9934375 0 0 Z " fill="#4F6064" transform="translate(536,455)"/>
<path d="M0 0 C0 0.99 0 1.98 0 3 C-1.62935241 4.37868281 -3.29749607 5.71274093 -5 7 C-5.33 7.66 -5.66 8.32 -6 9 C-6.99 9 -7.98 9 -9 9 C-7.45665977 5.21180126 -4.44676575 0 0 0 Z " fill="#293F45" transform="translate(583,537)"/>
<path d="M0 0 C0.66 0.66 1.32 1.32 2 2 C1.61233695 5.58588324 0.41433748 8.69987921 -1 12 C-1.66 11.34 -2.32 10.68 -3 10 C-2.75 8.25 -2.75 8.25 -2 6 C-1.649375 4.9275 -1.29875 3.855 -0.9375 2.75 C-0.4734375 1.38875 -0.4734375 1.38875 0 0 Z " fill="#2C4047" transform="translate(327,219)"/>
<path d="M0 0 C0.66 0.33 1.32 0.66 2 1 C-1.66666667 4.66666667 -5.33333333 8.33333333 -9 12 C-9.66 11.67 -10.32 11.34 -11 11 C-7.37 7.37 -3.74 3.74 0 0 Z " fill="#E6E9EA" transform="translate(533,527)"/>
<path d="M0 0 C0.66 0.33 1.32 0.66 2 1 C0.8125 3 0.8125 3 -1 5 C-3.6875 5.25 -3.6875 5.25 -6 5 C-6 5.66 -6 6.32 -6 7 C-7.32 6.67 -8.64 6.34 -10 6 C-8.3811004 4.96951963 -6.75467511 3.95085322 -5.125 2.9375 C-4.22007812 2.36902344 -3.31515625 1.80054688 -2.3828125 1.21484375 C-1.20332031 0.61349609 -1.20332031 0.61349609 0 0 Z " fill="#384D53" transform="translate(558,927)"/>
<path d="M0 0 C0 3.74016583 -0.9341591 4.45276193 -3.375 7.1875 C-4.00148438 7.90292969 -4.62796875 8.61835937 -5.2734375 9.35546875 C-7 11 -7 11 -9 11 C-8.34 9.68 -7.68 8.36 -7 7 C-6.34 7 -5.68 7 -5 7 C-4.731875 6.401875 -4.46375 5.80375 -4.1875 5.1875 C-3.01506533 3.02775192 -1.80630718 1.64209744 0 0 Z " fill="#3D4F55" transform="translate(709,981)"/>
<path d="M0 0 C0.66 0 1.32 0 2 0 C2.69699552 1.45381897 3.38233866 2.91322953 4.0625 4.375 C4.63677734 5.59316406 4.63677734 5.59316406 5.22265625 6.8359375 C5.47917969 7.55007813 5.73570312 8.26421875 6 9 C5.67 9.66 5.34 10.32 5 11 C1.71779105 9.35889552 1.25429211 6.30677012 0 3 C0 2.01 0 1.02 0 0 Z " fill="#34464C" transform="translate(775,833)"/>
<path d="M0 0 C0 0.99 0 1.98 0 3 C-1.24420647 3.5345256 -2.49570936 4.05208611 -3.75 4.5625 C-4.44609375 4.85253906 -5.1421875 5.14257812 -5.859375 5.44140625 C-8.30012784 6.07831803 -9.6403655 5.80248831 -12 5 C-10.37750059 4.16180842 -8.75191503 3.3295884 -7.125 2.5 C-6.22007812 2.0359375 -5.31515625 1.571875 -4.3828125 1.09375 C-2 0 -2 0 0 0 Z " fill="#2E4247" transform="translate(496,375)"/>
<path d="M0 0 C2.30143236 3.45214853 2.13833854 4.23479324 1.625 8.1875 C1.51414062 9.08855469 1.40328125 9.98960937 1.2890625 10.91796875 C1.19367187 11.60503906 1.09828125 12.29210937 1 13 C-0.9078584 9.8250906 -1.1609041 7.89414789 -0.625 4.25 C-0.51414062 3.45078125 -0.40328125 2.6515625 -0.2890625 1.828125 C-0.19367187 1.22484375 -0.09828125 0.6215625 0 0 Z " fill="#23383E" transform="translate(514,877)"/>
<path d="M0 0 C0.66 0 1.32 0 2 0 C1.67 4.95 1.34 9.9 1 15 C0.67 15 0.34 15 0 15 C-0.19601608 13.25093341 -0.38147403 11.50068154 -0.5625 9.75 C-0.66691406 8.77546875 -0.77132812 7.8009375 -0.87890625 6.796875 C-0.98974468 4.2368648 -0.77738092 2.41851841 0 0 Z " fill="#56A475" transform="translate(953,577)"/>
<path d="M0 0 C3.68754757 0.49831724 5.60490662 1.10067643 8 4 C7.071875 3.979375 6.14375 3.95875 5.1875 3.9375 C1.97713989 3.84230396 1.97713989 3.84230396 -1 5 C-0.67 3.35 -0.34 1.7 0 0 Z " fill="#274646" transform="translate(674,916)"/>
<path d="M0 0 C0 0.66 0 1.32 0 2 C-0.99 2 -1.98 2 -3 2 C-3 2.66 -3 3.32 -3 4 C-5.375 4.625 -5.375 4.625 -8 5 C-8.66 4.34 -9.32 3.68 -10 3 C-8.70990357 2.49596232 -7.41786211 1.99690074 -6.125 1.5 C-5.04605469 1.08234375 -5.04605469 1.08234375 -3.9453125 0.65625 C-2 0 -2 0 0 0 Z " fill="#35494F" transform="translate(673,1008)"/>
<path d="M0 0 C0.33 0 0.66 0 1 0 C1 2.97 1 5.94 1 9 C-0.32 7.68 -1.64 6.36 -3 5 C-2.03114628 3.31503702 -1.03013277 1.64821244 0 0 Z " fill="#359756" transform="translate(440,904)"/>
<path d="M0 0 C0.66 0.66 1.32 1.32 2 2 C1.67028521 5.29714793 1.3773161 6.6226839 -1 9 C-2.25541557 5.23375329 -1.37061958 3.62811066 0 0 Z " fill="#E3E6E6" transform="translate(575,461)"/>
<path d="M0 0 C0.33 0 0.66 0 1 0 C0.67 5.28 0.34 10.56 0 16 C-0.33 16 -0.66 16 -1 16 C-1.33 11.71 -1.66 7.42 -2 3 C-1.34 3 -0.68 3 0 3 C0 2.01 0 1.02 0 0 Z " fill="#4D9E6D" transform="translate(357,459)"/>
<path d="M0 0 C-0.33 0.99 -0.66 1.98 -1 3 C-3.375 3.625 -3.375 3.625 -6 4 C-6.66 3.34 -7.32 2.68 -8 2 C-5.09399739 0.74335022 -3.20395416 0 0 0 Z " fill="#2A3F45" transform="translate(660,1013)"/>
<path d="M0 0 C0.99 0.66 1.98 1.32 3 2 C0.25 3.625 0.25 3.625 -3 5 C-5.375 4.1875 -5.375 4.1875 -7 3 C-3.6875 1.375 -3.6875 1.375 0 0 Z " fill="#253A40" transform="translate(680,1004)"/>
<path d="M0 0 C-0.66 0 -1.32 0 -2 0 C-2.33 0.99 -2.66 1.98 -3 3 C-6.02485781 2.4118332 -9.01386614 1.75929472 -12 1 C-3.96428571 -1.27678571 -3.96428571 -1.27678571 0 0 Z " fill="#5DA87A" transform="translate(700,717)"/>
<path d="M0 0 C0.75 1.75 0.75 1.75 1 4 C-0.9375 6.25 -0.9375 6.25 -3 8 C-3.33 7.34 -3.66 6.68 -4 6 C-2.68 4.02 -1.36 2.04 0 0 Z " fill="#35905A" transform="translate(326,390)"/>
<path d="M0 0 C0.66 0.66 1.32 1.32 2 2 C-0.3125 4.0625 -0.3125 4.0625 -3 6 C-3.99 5.67 -4.98 5.34 -6 5 C-5.195625 4.360625 -4.39125 3.72125 -3.5625 3.0625 C-1.7249496 1.59396498 -1.7249496 1.59396498 0 0 Z " fill="#253B41" transform="translate(694,995)"/>
<path d="M0 0 C-1 3 -1 3 -2.8125 4.25 C-5.33943414 5.11637742 -6.52221994 4.88492145 -9 4 C-2.25 0 -2.25 0 0 0 Z " fill="#384C51" transform="translate(551,756)"/>
<path d="M0 0 C-2.3125 2.0625 -2.3125 2.0625 -5 4 C-5.99 3.67 -6.98 3.34 -8 3 C-7.67 2.01 -7.34 1.02 -7 0 C-4.3333581 -1.33332095 -2.83319697 -0.67102033 0 0 Z " fill="#2C424A" transform="translate(564,607)"/>
<path d="M0 0 C0 3 0 3 -1.5 4.6875 C-1.995 5.120625 -2.49 5.55375 -3 6 C-4.32 5.34 -5.64 4.68 -7 4 C-4.69 2.68 -2.38 1.36 0 0 Z " fill="#2D4146" transform="translate(613,612)"/>
<path d="M0 0 C0.66 0.66 1.32 1.32 2 2 C-0.3125 3.5625 -0.3125 3.5625 -3 5 C-3.99 4.67 -4.98 4.34 -6 4 C-4.02 2.68 -2.04 1.36 0 0 Z " fill="#2C4147" transform="translate(480,383)"/>
</svg>
